<?xml version="1.0"?>
<!--Icons from directory ""-->
<svg xmlns="http://www.w3.org/2000/svg" width="33" height="195" viewBox="0 0 33 195"><svg width="18" height="18" id="add" y="0"><path d="M0 8h18v2H0V8zm8-8h2v18H8V0z"/></svg><svg width="33" height="57" id="nevigate_next_la" y="18"><path d="M8.03 55.58l23.52-23.74a4.8 4.8 0 0 0 0-6.72L8.03 1.39a4.66 4.66 0 0 0-6.65 0 4.787 4.787 0 0 0 0 6.71l19.53 18.87v3L1.38 48.86a4.78 4.78 0 0 0 0 6.72 4.678 4.678 0 0 0 6.65 0"/></svg><svg width="8" height="14" id="nevigate_next_sm" y="75"><path d="M2.02 13.62L7.9 7.79a1.159 1.159 0 0 0 0-1.65L2.02.32a1.171 1.171 0 0 0-1.66 0 1.159 1.159 0 0 0 0 1.65L5.24 6.6v.73L.36 11.97a1.147 1.147 0 0 0 0 1.65 1.189 1.189 0 0 0 1.66 0"/></svg><svg width="6" height="11" id="nevigate_next_xs" y="89"><path d="M1.46 10.72l4.27-4.58a.977.977 0 0 0 0-1.3L1.46.25a.8.8 0 0 0-1.2 0 .956.956 0 0 0 0 1.3L3.8 5.19v.58L.26 9.43a.931.931 0 0 0-.25.65.907.907 0 0 0 .25.64.8.8 0 0 0 1.2 0"/></svg><svg width="33" height="57" id="nevigate_prev_la" y="100"><path d="M24.925 1.4L1.362 25.14a4.784 4.784 0 0 0 0 6.72l23.563 23.75a4.67 4.67 0 0 0 6.658 0 4.765 4.765 0 0 0 0-6.71L12.02 30.02v-3.01l19.563-18.9a4.754 4.754 0 0 0 0-6.71 4.67 4.67 0 0 0-6.658 0"/></svg><svg width="8" height="14" id="nevigate_prev_sm" y="157"><path d="M6.24.34L.34 6.17a1.159 1.159 0 0 0 0 1.65l5.9 5.83a1.171 1.171 0 0 0 1.66 0 1.159 1.159 0 0 0 0-1.65L3.01 7.37v-.74L7.9 1.99a1.147 1.147 0 0 0 0-1.65 1.189 1.189 0 0 0-1.66 0"/></svg><svg width="24" height="24" id="shpping_cart" y="171"><path d="M7 18c-1.1 0-1.99.9-1.99 2S5.9 22 7 22s2-.9 2-2-.9-2-2-2zM1 2v2h2l3.6 7.59-1.35 2.45c-.16.28-.25.61-.25.96 0 1.1.9 2 2 2h12v-2H7.42c-.14 0-.25-.11-.25-.25l.03-.12.9-1.63h7.45c.75 0 1.41-.41 1.75-1.03l3.58-6.49A1.003 1.003 0 0 0 20 4H5.21l-.94-2H1zm16 16c-1.1 0-1.99.9-1.99 2s.89 2 1.99 2 2-.9 2-2-.9-2-2-2z"/><path d="M0 0h24v24H0z" fill="none"/></svg></svg>
